<svg xmlns="http://www.w3.org/2000/svg" viewBox="0 0 55 55">
  <path fill="#7fbb00" d="M55 27.5C55 12.337 42.663 0 27.5 0S0 12.337 0 27.5c0 8.009 3.444 15.228 8.926 20.258l-.026.023.892.752c.058.049.121.089.179.137.474.393.965.766 1.465 1.127.162.117.324.234.489.348.534.368 1.082.717 1.642 1.048.122.072.245.142.368.212.613.349 1.239.678 1.88.98.047.022.095.042.142.064 2.089.971 4.319 1.684 6.651 2.105.061.011.122.022.184.033.724.125 1.456.225 2.197.292.09.008.18.013.271.021.738.061 1.484.1 2.24.1.749 0 1.488-.039 2.222-.098.093-.008.186-.013.279-.021.735-.067 1.461-.164 2.178-.287.062-.011.125-.022.187-.034 2.297-.412 4.495-1.109 6.557-2.055.076-.035.153-.068.229-.104.617-.29 1.22-.603 1.811-.936.147-.083.293-.167.439-.253.538-.317 1.067-.648 1.581-1 .185-.126.366-.259.549-.391.439-.316.87-.642 1.289-.983.093-.075.193-.14.284-.217l.915-.764-.027-.023C51.523 42.802 55 35.55 55 27.5zm-53 0C2 13.439 13.439 2 27.5 2S53 13.439 53 27.5c0 7.577-3.325 14.389-8.589 19.063-.294-.203-.59-.385-.893-.537l-8.467-4.233c-.76-.38-1.232-1.144-1.232-1.993v-2.957c.196-.242.403-.516.617-.817 1.096-1.548 1.975-3.27 2.616-5.123 1.267-.602 2.085-1.864 2.085-3.289v-3.545c0-.867-.318-1.708-.887-2.369v-4.667c.052-.52.236-3.448-1.883-5.864C34.524 9.065 31.541 8 27.5 8s-7.024 1.065-8.867 3.168c-2.119 2.416-1.935 5.346-1.883 5.864v4.667c-.568.661-.887 1.502-.887 2.369v3.545c0 1.101.494 2.128 1.34 2.821.81 3.173 2.477 5.575 3.093 6.389v2.894c0 .816-.445 1.566-1.162 1.958l-7.907 4.313c-.252.137-.502.297-.752.476C5.276 41.792 2 35.022 2 27.5z"/>
</svg>
