<?xml version="1.0" encoding="utf-8"?>
<!-- Generator: Adobe Illustrator 22.1.0, SVG Export Plug-In . SVG Version: 6.00 Build 0)  -->
<svg version="1.1" id="Layer_1" xmlns="http://www.w3.org/2000/svg" xmlns:xlink="http://www.w3.org/1999/xlink" x="0px" y="0px"
	 viewBox="0 0 500 500" style="enable-background:new 0 0 500 500;" xml:space="preserve">
<style type="text/css">
	.st0{fill:#FFFFFF;}
</style>
<g>
	<path class="st0" d="M475.1,468.8c-148.9,0-297.9,0-447,0c0-144.8,0-289.7,0-434.7c148.9,0,297.8,0,447,0
		C475.1,178.9,475.1,323.9,475.1,468.8z M252.2,263.7c3.4,4.1,5.1,6.5,7.1,8.5c57.6,57.7,115.3,115.3,173,173
		c1.8,1.8,3.5,3.9,5.7,5.3c3.7,2.4,8.3,3.2,10.7-1c1.5-2.7,1.3-7,0.5-10.2c-0.5-2.2-3.3-3.8-5.1-5.7
		C386.1,375.7,328.2,317.8,270.4,260c-2-2-3.8-4.1-7-7.4c2.7-2,5.2-3.4,7.2-5.4c57.9-57.8,115.7-115.7,173.6-173.5
		c1.7-1.7,3.5-3.2,4.8-5.1c2.5-3.7,3.4-8.2-0.8-10.7c-2.7-1.6-7-1.4-10.3-0.7c-2.2,0.5-3.9,3.2-5.7,5.1
		c-57.9,57.8-115.7,115.7-173.6,173.5c-2,2-4.1,3.8-6.3,6c-2.4-2.3-4.4-4.2-6.4-6.2C188.1,177.7,130.3,119.9,72.4,62
		c-1.5-1.5-2.8-3.1-4.5-4.3c-3.8-2.8-7.7-3.8-11.6,0c-3.9,3.9-2.7,7.9,0.1,11.7c1.2,1.6,2.9,3,4.3,4.5
		c57.8,57.9,115.7,115.7,173.5,173.6c2,2,3.9,4.1,6.1,6.4c-2.2,2.3-4.1,4.4-6.1,6.4C176.5,318,118.7,375.9,60.8,433.7
		c-1.5,1.5-3.1,2.8-4.4,4.5c-2.9,3.8-3.9,7.8-0.2,11.6c3.7,3.9,7.8,3,11.6,0.1c1.6-1.2,3-2.9,4.5-4.3
		C130.2,387.7,188,329.9,245.9,272C247.8,270,249.3,267.5,252.2,263.7z"/>
	<path d="M252.2,263.7c-2.9,3.8-4.3,6.4-6.3,8.3C188,329.9,130.2,387.7,72.3,445.6c-1.5,1.5-2.8,3.1-4.5,4.3
		c-3.8,2.9-7.9,3.7-11.6-0.1c-3.7-3.8-2.7-7.9,0.2-11.6c1.3-1.6,2.9-3,4.4-4.5c57.8-57.9,115.7-115.7,173.5-173.6
		c2-2,3.9-4.1,6.1-6.4c-2.2-2.3-4.1-4.4-6.1-6.4C176.6,189.5,118.7,131.7,60.9,73.8c-1.5-1.5-3.1-2.8-4.3-4.5
		c-2.8-3.8-4-7.8-0.1-11.7c3.8-3.8,7.8-2.8,11.6,0c1.7,1.2,3,2.9,4.5,4.3c57.9,57.8,115.7,115.7,173.6,173.5c2,2,4.1,3.9,6.4,6.2
		c2.3-2.2,4.4-4,6.3-6c57.9-57.8,115.7-115.7,173.6-173.5c1.8-1.8,3.5-4.6,5.7-5.1c3.3-0.7,7.6-0.9,10.3,0.7c4.2,2.5,3.2,7,0.8,10.7
		c-1.3,1.9-3.2,3.4-4.8,5.1c-57.8,57.9-115.7,115.7-173.6,173.5c-2,2-4.6,3.4-7.2,5.4c3.1,3.4,5,5.5,7,7.4
		c57.8,57.9,115.7,115.7,173.5,173.6c1.8,1.8,4.6,3.5,5.1,5.7c0.8,3.3,1,7.5-0.5,10.2c-2.4,4.2-7,3.5-10.7,1
		c-2.1-1.4-3.8-3.5-5.7-5.3c-57.7-57.7-115.3-115.3-173-173C257.2,270.2,255.6,267.8,252.2,263.7z"/>
</g>
</svg>
