<svg xmlns="http://www.w3.org/2000/svg" width="485.211" height="363.90799">
  <path fill="#7fbb00" d="M485.211 303.255c0 10.637-2.992 20.498-7.785 29.174l-153.201-171.41 151.54-132.584c5.895 9.355 9.446 20.344 9.446 32.219zM242.606 192.142l210.863-184.5C444.816 2.905 435.072 0 424.561 0H60.651C50.127 0 40.38 2.905 31.762 7.642zm58.787-11.162l-48.809 42.734c-2.855 2.487-6.41 3.729-9.978 3.729-3.57 0-7.125-1.242-9.98-3.729l-48.82-42.736L28.667 354.579c9.299 5.834 20.197 9.329 31.983 9.329h363.911c11.784 0 22.687-3.495 31.983-9.329zM9.448 28.434C3.554 37.789 0 48.778 0 60.654v242.602c0 10.637 2.978 20.498 7.789 29.174l153.183-171.44z" class="active-path"/>
</svg>
