<svg xmlns="http://www.w3.org/2000/svg" viewBox="0 0 161.03332 157.05838">
  <path fill="#75a902" fill-rule="evenodd" d="M80.51733498.00000312c-44.46266556 0-80.51733132 36.0479991-80.51733132 80.51733132 0 35.57466578 23.07066609 65.75599836 55.06266529 76.40266476 4.0239999.74533331 5.5013332-1.74666663 5.5013332-3.87333324 0-1.91999995-.07466667-8.26266646-.10933334-14.9906663-22.39999944 4.87066655-27.12666598-9.49999976-27.12666598-9.49999976-3.66266658-9.30666643-8.93999978-11.78133303-8.93999978-11.78133303-7.30533315-4.99733321.55066665-4.89466655.55066665-4.89466655 8.08533313.56666665 12.34266636 8.29866646 12.34266636 8.29866646 7.18133315 12.3079997 18.83599953 8.74933312 23.43066608 6.69199983.72266665-5.20399987 2.80933326-8.75733311 5.11199987-10.7666664-17.88399955-2.03599994-36.68399908-8.93999977-36.68399908-39.791999 0-8.79066645 3.14533326-15.97333293 8.2959998-21.61199946-.83599999-2.02933328-3.59199992-10.21733308.77999997-21.30799947 0 0 6.76133317-2.16399994 22.14799945 8.25333313 6.4226665-1.78399995 13.31066633-2.6786666 20.15333283-2.70933326 6.8426665.03066666 13.73599966.9253333 20.17066616 2.70933326 15.36799962-10.41733307 22.11999945-8.25333313 22.11999945-8.25333313 4.38266656 11.0906664 1.6253333 19.27866619.78933331 21.30799947 5.16266654 5.63866653 8.28666646 12.82133301 8.28666646 21.61199946 0 30.92533256-18.83599953 37.73466572-36.76533241 39.727999 2.88799993 2.49866661 5.4613332 7.39866649 5.4613332 14.9106663 0 10.77333307-.09333334 19.44399952-.09333334 22.09599945 0 2.14266661 1.4493333 4.65333322 5.53066653 3.86266657 31.97466587-10.6586664 55.01599863-40.82933231 55.01599863-76.3919981 0-44.46933221-36.04933244-80.51733131-80.51599799-80.51733131"/>
</svg>
