<svg xmlns="http://www.w3.org/2000/svg" viewBox="0 0 460 460">
  <path fill="#cff9f4" d="M276.563 87.084V48.281H230l-15.521 38.803z" data-old_color="#CEF9F4" data-original="#FFEDB5"/>
  <path fill="#beedf3" d="M183.437 48.281H230v38.802h-46.563z" data-old_color="#C9EDF2" data-original="#FFFFFF"/>
  <path fill="#00ffcb" d="M214.829 371.741L230 394.5h131.073V68.281H302z" data-old_color="#00FFDB" data-original="#FFC61B"/>
  <path fill="#f3e0f6" d="M341.07 129v245.5H230L210.47 125z" data-old_color="#F3DEF6" data-original="#C2FBFF"/>
  <path fill="#beedf3" d="M341.07 88.28V129H230l-23.34-40.72z" class="active-path" data-old_color="#D4C8E8" data-original="#71E2F0"/>
  <path fill="#88edd3" d="M158 68.281h-58V394.5h130v-22.759z" data-old_color="#87EDD3" data-original="#FEE187"/>
  <path fill="#beedf3" d="M230 125v249.5H118.93V129z" data-old_color="#C9EDF2" data-original="#FFFFFF"/>
  <path fill="#f3e0f6" d="M118.93 88.28H230V129H118.93z" data-old_color="#F3DEF6" data-original="#C2FBFF"/>
  <path fill="#88edd3" d="M230 68.281l-15.173 20 15.173 20h72v-40z" data-old_color="#87EDD3" data-original="#FEE187"/>
  <path fill="#cff9f4" d="M158 68.281h72v40h-72z" data-old_color="#CEF9F4" data-original="#FFEDB5"/>
  <path fill="#f3e0f6" d="M138.927 287.5v20H230l9.5-10-9.5-10z" data-old_color="#F3DEF6" data-original="#C2FBFF"/>
  <path fill="#beedf3" d="M230 287.5h51.073v20H230zM301.073 287.5h20v20h-20z" class="active-path" data-old_color="#D4C8E8" data-original="#71E2F0"/>
  <path fill="#f3e0f6" d="M138.927 331v20H230l9.5-10-9.5-10z" data-old_color="#F3DEF6" data-original="#C2FBFF"/>
  <path fill="#beedf3" d="M230 331h51.073v20H230zM301.073 331h20v20h-20z" class="active-path" data-old_color="#D4C8E8" data-original="#71E2F0"/>
  <path fill="#f3e0f6" d="M138.927 172.5v-20H230l9.5 10-9.5 10z" data-old_color="#F3DEF6" data-original="#C2FBFF"/>
  <path fill="#beedf3" d="M230 152.5h51.073v20H230zM301.073 152.5h20v20h-20z" class="active-path" data-old_color="#D4C8E8" data-original="#71E2F0"/>
  <path fill="#88edd3" d="M100 265l-78.593-35L100 211.333z" data-old_color="#87EDD3" data-original="#FEE187"/>
  <path fill="#beedf3" d="M100 230H21.407L100 195z" data-old_color="#C9EDF2" data-original="#FFFFFF"/>
  <path fill="#00afff" d="M341.411 264.999L100 265v-35l251.411-18.667z" data-old_color="#00A8FF" data-original="#121149"/>
  <path fill="#00fff2" d="M351.411 230H100v-35h241.411z" data-old_color="#00FFF9" data-original="#366796"/>
  <path fill="#beedf3" d="M230 219.474h121.411v20H230z" data-old_color="#C9EDF2" data-original="#FFFFFF"/>
  <path fill="#88edd3" d="M431.411 239.47v-18.94l-50-.004v18.948z" data-old_color="#87EDD3" data-original="#FEE187"/>
  <path fill="#00afff" d="M401.64 265h-40l-10-53.667 50 18.667z" data-old_color="#00A8FF" data-original="#121149"/>
  <path fill="#00fff2" d="M401.64 230h-50l10-35h40z" data-old_color="#00FFF9" data-original="#366796"/>
  <path fill="#88edd3" d="M341.411 264.999V230l5-9.334 15 9.334v34.999z" data-old_color="#87EDD3" data-original="#FEE187"/>
  <path fill="#beedf3" d="M341.411 195.002h20v35h-20z" data-old_color="#C9EDF2" data-original="#FFFFFF"/>
</svg>
