<svg xmlns="http://www.w3.org/2000/svg" width="512" height="512">
  <circle cx="370" cy="346" r="20" fill="#7fbb00" class="active-path" data-old_color="#7fbb00" data-original="#000000"/>
  <path fill="#7fbb00" d="M460 362c11.046 0 20-8.954 20-20v-74c0-44.112-35.888-80-80-80h-24.037v-70.534C375.963 52.695 322.131 0 255.963 0s-120 52.695-120 117.466V188H112c-44.112 0-80 35.888-80 80v164c0 44.112 35.888 80 80 80h288c44.112 0 80-35.888 80-80 0-11.046-8.954-20-20-20s-20 8.954-20 20c0 22.056-17.944 40-40 40H112c-22.056 0-40-17.944-40-40V268c0-22.056 17.944-40 40-40h288c22.056 0 40 17.944 40 40v74c0 11.046 8.954 20 20 20zM335.963 188h-160v-70.534c0-42.715 35.888-77.466 80-77.466s80 34.751 80 77.466V188z" class="active-path" data-old_color="#7fbb00" data-original="#000000"/>
  <circle cx="219" cy="346" r="20" fill="#7fbb00" class="active-path" data-old_color="#7fbb00" data-original="#000000"/>
  <circle cx="144" cy="346" r="20" fill="#7fbb00" class="active-path" data-old_color="#7fbb00" data-original="#000000"/>
  <circle cx="294" cy="346" r="20" fill="#7fbb00" class="active-path" data-old_color="#7fbb00" data-original="#000000"/>
</svg>
